<?xml version="1.0" standalone="no"?>
<!DOCTYPE svg PUBLIC "-//W3C//DTD SVG 20010904//EN"
 "http://www.w3.org/TR/2001/REC-SVG-20010904/DTD/svg10.dtd">
<svg version="1.0" xmlns="http://www.w3.org/2000/svg"
 width="1280.000000pt" height="734.000000pt" viewBox="0 0 1280.000000 734.000000"
 preserveAspectRatio="xMidYMid meet">
<metadata>
Created by potrace 1.15, written by Peter Selinger 2001-2017
</metadata>
<g transform="translate(0.000000,734.000000) scale(0.100000,-0.100000)"
fill="#000000" stroke="none">
<path d="M6292 7231 c-125 -188 -221 -406 -268 -606 -14 -62 -19 -119 -19
-250 0 -155 6 -204 32 -271 3 -9 -22 1 -61 25 -102 63 -232 126 -326 157 -77
26 -98 29 -215 29 -113 0 -138 -3 -190 -24 -80 -32 -165 -116 -190 -190 -66
-199 57 -501 240 -587 87 -41 164 -24 237 52 l37 39 -25 52 c-31 62 -27 93 17
134 41 38 98 52 194 47 90 -5 146 -28 195 -80 34 -35 45 -66 36 -100 -8 -35
-67 -128 -156 -248 -134 -182 -154 -237 -105 -285 20 -21 34 -25 82 -25 119 0
238 45 319 122 l51 48 28 -73 29 -72 -33 -164 c-195 -967 -534 -1622 -943
-1823 -129 -63 -171 -73 -298 -73 -105 1 -124 4 -217 36 -192 67 -355 180
-563 388 -75 75 -169 179 -211 231 -129 162 -120 144 -113 233 5 51 11 76 18
73 114 -51 133 -56 221 -56 234 0 316 96 180 212 -11 10 -82 61 -158 114 -206
145 -237 186 -203 268 61 147 307 236 399 144 28 -27 29 -32 23 -88 -7 -56 -6
-59 21 -77 45 -31 81 -43 125 -43 156 0 269 197 256 443 -11 195 -95 313 -252
354 -118 31 -273 -6 -410 -97 -79 -53 -222 -190 -301 -288 l-50 -62 -8 66
c-41 360 -282 716 -689 1018 l-37 27 -20 -69 c-65 -217 -91 -387 -91 -589 -1
-263 53 -472 159 -627 18 -25 29 -46 26 -46 -3 0 -63 12 -133 27 -164 34 -373
38 -467 10 -239 -74 -363 -235 -325 -423 46 -228 311 -449 482 -404 54 15 118
79 137 138 l15 43 -37 34 c-59 54 -60 98 -5 161 93 106 315 128 398 39 20 -22
22 -31 17 -87 -3 -35 -31 -143 -61 -241 -65 -206 -71 -263 -31 -302 33 -34 69
-32 154 11 90 45 167 115 211 193 19 33 37 60 40 60 3 0 23 -21 44 -47 l39
-47 -6 -180 c-23 -627 -156 -1088 -368 -1279 -71 -64 -112 -83 -247 -117 -160
-41 -281 -53 -384 -39 -98 13 -230 56 -325 104 -180 91 -523 336 -523 373 0 6
36 13 80 15 66 4 92 11 155 42 42 21 101 61 133 90 51 49 57 57 57 95 0 76
-39 92 -285 122 -244 29 -302 47 -314 93 -24 88 12 203 87 279 115 116 225
117 257 1 l13 -46 77 4 c65 2 82 7 112 30 142 108 101 423 -77 604 -109 110
-240 135 -371 70 -187 -94 -304 -282 -379 -609 l-27 -117 -48 67 c-158 224
-428 387 -790 477 -108 26 -286 56 -340 56 -28 0 -30 -2 -29 -37 1 -35 10 -46
132 -160 73 -67 200 -179 282 -250 83 -70 227 -193 320 -273 193 -164 444
-407 644 -621 103 -110 169 -193 271 -342 331 -483 457 -720 524 -982 25 -99
53 -283 58 -380 l3 -50 1855 -6 c1020 -3 2891 -7 4158 -8 l2302 -1 0 59 c0
318 341 1000 827 1652 123 166 400 441 708 704 116 98 260 222 320 273 61 52
174 153 252 226 135 124 143 133 143 169 0 20 -4 37 -9 37 -6 0 -63 -7 -128
-15 -286 -37 -564 -135 -770 -272 -83 -54 -207 -176 -256 -250 -48 -74 -43
-80 -82 87 -69 297 -190 487 -362 572 -60 29 -77 33 -148 33 -85 0 -128 -16
-203 -73 -102 -78 -191 -277 -192 -429 0 -138 91 -243 210 -243 51 0 67 11 79
52 17 55 52 88 93 88 78 -1 179 -79 228 -176 27 -55 38 -153 21 -196 -15 -39
-94 -64 -263 -83 -222 -25 -278 -39 -311 -76 -38 -42 -31 -79 26 -137 87 -89
199 -141 312 -144 36 -1 65 -4 65 -6 0 -3 -5 -22 -12 -43 -9 -30 -31 -56 -97
-112 -207 -176 -347 -273 -494 -342 -137 -65 -238 -88 -377 -88 -137 1 -232
23 -359 84 -72 35 -101 57 -176 133 -76 77 -99 108 -147 201 -135 264 -194
567 -224 1152 l-7 132 43 51 c42 51 60 61 60 36 0 -7 19 -42 42 -76 46 -69
131 -138 216 -176 67 -30 94 -30 129 0 43 37 37 103 -26 301 -67 207 -81 284
-59 317 25 38 84 62 165 66 149 8 283 -75 283 -178 0 -22 -12 -43 -41 -75
l-40 -44 26 -55 c79 -167 267 -161 450 15 222 213 218 491 -8 627 -166 100
-362 115 -661 51 -49 -10 -91 -17 -93 -15 -2 2 12 30 32 61 96 150 155 382
155 612 0 160 -59 499 -109 626 l-11 28 -82 -63 c-45 -35 -124 -103 -176 -152
-280 -268 -431 -541 -468 -848 l-5 -47 -74 87 c-178 212 -328 319 -503 358
-282 63 -476 -146 -433 -465 35 -261 198 -395 364 -298 l44 26 -7 48 c-15 96
27 138 136 136 121 -2 247 -87 288 -195 18 -46 18 -47 -3 -82 -22 -35 -87 -87
-267 -214 -56 -39 -113 -85 -128 -102 -55 -66 -44 -118 32 -153 40 -19 65 -22
172 -22 114 0 130 2 181 26 l57 27 6 -37 c12 -75 8 -86 -80 -202 -229 -302
-423 -496 -620 -626 -182 -118 -337 -150 -483 -99 -396 139 -716 560 -953
1256 -62 182 -126 413 -167 600 -18 80 -36 162 -40 183 -8 32 -5 49 16 95 14
31 26 58 27 60 2 1 22 -17 47 -40 78 -75 265 -140 354 -124 39 8 75 47 75 83
0 37 -41 108 -144 248 -107 145 -146 214 -146 259 0 45 79 117 154 140 121 38
265 4 301 -71 17 -36 15 -54 -16 -114 l-18 -36 39 -41 c93 -103 219 -96 330
18 120 124 187 331 155 481 -33 150 -158 242 -352 256 -161 12 -351 -52 -587
-196 -42 -26 -66 -36 -63 -27 4 9 14 55 23 103 20 106 15 295 -11 418 -40 195
-149 451 -273 643 -76 117 -86 115 -180 -27z"/>
<path d="M2240 300 l0 -300 4125 0 4125 0 0 300 0 300 -4125 0 -4125 0 0 -300z"/>
</g>
</svg>
